<svg width="35" height="34" viewBox="0 0 35 34" fill="none" xmlns="http://www.w3.org/2000/svg">
<path d="M17.6657 0C8.35353 0 0.777344 7.58056 0.777344 16.8983C0.777344 26.2164 8.35353 33.7967 17.6657 33.7967C26.9781 33.7967 34.5545 26.2164 34.5545 16.8983C34.5543 7.58056 26.9778 0 17.6657 0ZM17.6657 32.13C9.27189 32.13 2.44305 25.2972 2.44305 16.8983C2.44305 8.49972 9.27189 1.66667 17.6657 1.66667C26.0594 1.66667 32.8888 8.49972 32.8888 16.8983C32.8886 25.2972 26.0594 32.13 17.6657 32.13Z" fill="white"/>
<path d="M24.5941 11.4943C25.0077 11.2937 25.9981 10.6979 26.4649 9.41902C26.4649 9.41902 25.3399 10.1829 23.8087 10.2729L23.7809 10.2873C23.3796 9.87506 22.8911 9.54593 22.3467 9.32098C21.8022 9.09603 21.2138 8.98023 20.619 8.98096C18.25 8.98096 16.3297 10.7843 16.3297 13.0087C16.3297 13.3462 16.3744 13.674 16.4581 13.9873L16.4374 13.9582C16.4374 13.9582 11.8431 14.2054 7.51184 9.75624C7.51184 9.75624 5.59692 12.8121 8.87563 15.149C8.15764 15.2612 6.8897 14.6546 6.8897 14.6546C6.8897 14.6546 6.9613 17.8673 10.3592 18.654C9.80898 18.789 8.77978 18.8335 8.4449 18.699C8.4449 18.699 8.94722 21.1479 12.4173 21.5751C11.5319 22.0471 9.88087 23.4848 6.14746 23.2151C6.14746 23.2151 8.8283 25.2821 13.8057 24.9904C18.7831 24.6987 22.3967 21.5523 23.8563 18.2271C25.3159 14.9018 24.9098 13.0085 24.9098 13.0085C24.9098 13.0085 26.1295 12.4073 26.9679 10.9696C26.5806 11.0785 25.1443 11.4079 24.6098 11.5298C24.6044 11.5181 24.5991 11.5062 24.5941 11.4943Z" fill="white"/>
</svg>
