<svg width="149" height="26" viewBox="0 0 149 26" fill="none" xmlns="http://www.w3.org/2000/svg">
<path d="M0 26V0H13.6854C15.254 0.445714 16.6466 1.22571 17.863 2.34C19.0795 3.45429 19.6877 4.80381 19.6877 6.38857C19.6877 9.18667 18.5033 11.1429 16.1343 12.2571V12.4057C19.0795 13.6686 20.5521 15.6495 20.5521 18.3486C20.5521 21.4438 18.5193 23.9943 14.4537 26H0ZM6.53057 10.7343H11.2844C12.693 10.0657 13.3973 9.05048 13.3973 7.68857C13.3973 6.32667 12.741 5.24952 11.4285 4.45714H6.53057V10.7343ZM6.53057 21.6914H11.4765C12.0527 21.3695 12.5649 20.8619 13.0131 20.1686C13.4933 19.4752 13.7334 18.7819 13.7334 18.0886C13.7334 17.3952 13.5413 16.7638 13.1572 16.1943C12.773 15.6248 12.2928 15.2038 11.7166 14.9314H6.53057V21.6914Z" fill="#1E1E1E"/>
<path d="M39.7105 0C41.9514 1.41143 43.616 3.30571 44.7045 5.68286C45.7929 8.06 46.3371 10.5114 46.3371 13.0371C46.3371 15.5381 45.8089 17.9152 44.7525 20.1686C43.6961 22.4219 42.0154 24.3657 39.7105 26H29.8186C27.5137 24.3657 25.833 22.4219 24.7766 20.1686C23.7202 17.9152 23.192 15.5381 23.192 13.0371C23.192 10.5114 23.7362 8.06 24.8246 5.68286C25.9131 3.30571 27.5777 1.41143 29.8186 0H39.7105ZM33.0359 21.6914H36.4932C37.2936 20.9733 37.9658 19.8095 38.51 18.2C39.0863 16.5657 39.3744 14.8448 39.3744 13.0371C39.3744 11.2295 39.1023 9.53333 38.558 7.94857C38.0138 6.33905 37.3416 5.17524 36.5413 4.45714H33.0359C32.2356 5.17524 31.5473 6.33905 30.9711 7.94857C30.4268 9.53333 30.1547 11.2295 30.1547 13.0371C30.1547 14.8448 30.4268 16.5657 30.9711 18.2C31.5473 19.8095 32.2356 20.9733 33.0359 21.6914Z" fill="#1E1E1E"/>
<path d="M65.7364 0C67.9772 1.41143 69.6419 3.30571 70.7303 5.68286C71.8188 8.06 72.363 10.5114 72.363 13.0371C72.363 15.5381 71.8348 17.9152 70.7784 20.1686C69.7219 22.4219 68.0413 24.3657 65.7364 26H55.8445C53.5396 24.3657 51.8589 22.4219 50.8025 20.1686C49.7461 17.9152 49.2179 15.5381 49.2179 13.0371C49.2179 10.5114 49.7621 8.06 50.8505 5.68286C51.9389 3.30571 53.6036 1.41143 55.8445 0H65.7364ZM59.0617 21.6914H62.5191C63.3194 20.9733 63.9917 19.8095 64.5359 18.2C65.1121 16.5657 65.4002 14.8448 65.4002 13.0371C65.4002 11.2295 65.1281 9.53333 64.5839 7.94857C64.0397 6.33905 63.3674 5.17524 62.5671 4.45714H59.0617C58.2614 5.17524 57.5732 6.33905 56.9969 7.94857C56.4527 9.53333 56.1806 11.2295 56.1806 13.0371C56.1806 14.8448 56.4527 16.5657 56.9969 18.2C57.5732 19.8095 58.2614 20.9733 59.0617 21.6914Z" fill="#1E1E1E"/>
<path d="M76.1081 26V0H82.6867V10.9571H82.9268L88.9291 0H95.6998L88.689 12.4057L96.0359 26H88.737L83.0228 14.6343H82.6867V26H76.1081Z" fill="#1E1E1E"/>
<path d="M98.3356 26V0H104.914V26H98.3356Z" fill="#1E1E1E"/>
<path d="M112.616 0H124.141V4.45714H114.921L114.777 4.68L122.46 15.5257C124.029 17.7048 124.813 19.3638 124.813 20.5029C124.813 23.0038 123.741 24.8362 121.596 26H108.871V21.6914H118.811L118.955 21.4686L110.311 9.47143C109.063 7.73809 108.439 6.32667 108.439 5.23714C108.439 2.66191 109.831 0.91619 112.616 0Z" fill="#1E1E1E"/>
<path d="M134.738 26H128.16V0H134.738V10.4743H142.421V0H149V26H142.421V15.2286H134.738V26Z" fill="#1E1E1E"/>
</svg>
