<svg width="19" height="19" viewBox="0 0 19 19" fill="none" xmlns="http://www.w3.org/2000/svg">
<g clip-path="url(#clip0_402_4465)">
<path d="M1 1L17.5 17.5" stroke="#DFDFDF" stroke-width="2" stroke-linecap="round" stroke-linejoin="round"/>
<path d="M13.8284 13.8294C12.5108 14.8338 10.9063 15.3903 9.24967 15.4173C3.85384 15.4173 0.770508 9.25067 0.770508 9.25067C1.72934 7.4638 3.05922 5.90264 4.67092 4.67192M7.63092 3.269C8.16151 3.14481 8.70475 3.08272 9.24967 3.084C14.6455 3.084 17.7288 9.25067 17.7288 9.25067C17.2609 10.126 16.7029 10.9502 16.0638 11.7096M10.8838 10.8848C10.6721 11.112 10.4168 11.2943 10.1332 11.4207C9.8495 11.5471 9.54329 11.615 9.23279 11.6205C8.92229 11.626 8.61386 11.5689 8.32592 11.4525C8.03797 11.3362 7.7764 11.1631 7.55681 10.9435C7.33722 10.7239 7.1641 10.4624 7.0478 10.1744C6.93149 9.88648 6.87437 9.57806 6.87985 9.26756C6.88533 8.95706 6.95329 8.65084 7.07968 8.36718C7.20608 8.08351 7.38831 7.82821 7.61551 7.6165" stroke="#DFDFDF" stroke-width="2" stroke-linecap="round" stroke-linejoin="round"/>
</g>
<defs>
<clipPath id="clip0_402_4465">
<rect width="18.5" height="18.5" fill="white"/>
</clipPath>
</defs>
</svg>
