<svg width="34" height="34" viewBox="0 0 34 34" fill="none" xmlns="http://www.w3.org/2000/svg">
<path d="M16.8883 0C7.5762 0 0 7.58056 0 16.8983C0 26.2164 7.5762 33.7967 16.8883 33.7967C26.2008 33.7967 33.7772 26.2164 33.7772 16.8983C33.777 7.58056 26.2005 0 16.8883 0ZM16.8883 32.13C8.49456 32.13 1.66571 25.2972 1.66571 16.8983C1.66571 8.49972 8.49456 1.66667 16.8883 1.66667C25.2821 1.66667 32.1115 8.49972 32.1115 16.8983C32.1113 25.2972 25.2821 32.13 16.8883 32.13Z" fill="white"/>
<path d="M23.5435 7.08448H19.6397C19.6308 7.08442 19.6219 7.08479 19.613 7.08559C15.6717 7.09726 15.1569 9.68142 15.1548 11.94C15.1494 11.9614 15.1466 11.9833 15.1466 12.0053V13.5909H12.4492C12.3707 13.5909 12.2954 13.6201 12.24 13.6722C12.1845 13.7243 12.1533 13.795 12.1533 13.8686V17.7789C12.1533 17.8526 12.1845 17.9232 12.24 17.9753C12.2954 18.0274 12.3707 18.0567 12.4492 18.0567H15.1466V26.6375C15.1466 26.7112 15.1777 26.7819 15.2332 26.834C15.2887 26.886 15.3639 26.9153 15.4424 26.9153H19.379C19.4575 26.9153 19.5327 26.886 19.5882 26.834C19.6437 26.7819 19.6749 26.7112 19.6749 26.6375V18.057H23.5432C23.6216 18.057 23.6969 18.0277 23.7523 17.9756C23.8078 17.9235 23.839 17.8529 23.839 17.7792V13.8689C23.839 13.7953 23.8078 13.7246 23.7523 13.6725C23.6969 13.6204 23.6216 13.5911 23.5432 13.5911H19.379V11.4892H23.5432C23.6216 11.4892 23.6969 11.4599 23.7523 11.4078C23.8078 11.3557 23.839 11.2851 23.839 11.2114V7.36226C23.839 7.32579 23.8314 7.28968 23.8166 7.25598C23.8017 7.22228 23.78 7.19165 23.7525 7.16585C23.7251 7.14006 23.6925 7.11959 23.6566 7.10563C23.6207 7.09166 23.5823 7.08448 23.5435 7.08448Z" fill="white"/>
</svg>
