<svg width="68" height="77" viewBox="0 0 68 77" fill="none" xmlns="http://www.w3.org/2000/svg">
<g id="&#240;&#159;&#166;&#134; icon &#34;User&#34;">
<path id="Vector" d="M47.0126 45.5735C42.7101 45.5735 40.6413 47.9721 33.5804 47.9721C26.5196 47.9721 24.4658 45.5735 20.1483 45.5735C9.02474 45.5735 0 54.5982 0 65.7217V69.5595C0 73.5322 3.22312 76.7553 7.19581 76.7553H59.9651C63.9378 76.7553 67.1609 73.5322 67.1609 69.5595V65.7217C67.1609 54.5982 58.1362 45.5735 47.0126 45.5735ZM59.9651 69.5595H7.19581V65.7217C7.19581 58.5859 13.0124 52.7693 20.1483 52.7693C22.337 52.7693 25.8899 55.1679 33.5804 55.1679C41.3309 55.1679 44.8089 52.7693 47.0126 52.7693C54.1485 52.7693 59.9651 58.5859 59.9651 65.7217V69.5595ZM33.5804 43.1749C45.4985 43.1749 55.1679 33.5055 55.1679 21.5874C55.1679 9.66937 45.4985 0 33.5804 0C21.6624 0 11.993 9.66937 11.993 21.5874C11.993 33.5055 21.6624 43.1749 33.5804 43.1749ZM33.5804 7.19581C41.5108 7.19581 47.9721 13.657 47.9721 21.5874C47.9721 29.5178 41.5108 35.979 33.5804 35.979C25.6501 35.979 19.1888 29.5178 19.1888 21.5874C19.1888 13.657 25.6501 7.19581 33.5804 7.19581Z" fill="black"/>
</g>
</svg>
