<svg width="36" height="35" viewBox="0 0 36 35" fill="none" xmlns="http://www.w3.org/2000/svg">
<path d="M18.2773 35C8.62755 35 0.777344 27.1498 0.777344 17.5C0.777344 7.85021 8.62755 0 18.2773 0C27.9271 0 35.7773 7.85021 35.7773 17.5C35.7773 27.1498 27.9271 35 18.2773 35ZM18.2773 1.45833C9.43255 1.45833 2.23568 8.65521 2.23568 17.5C2.23568 26.3448 9.43255 33.5417 18.2773 33.5417C27.1221 33.5417 34.319 26.3448 34.319 17.5C34.319 8.65521 27.1221 1.45833 18.2773 1.45833Z" fill="white"/>
<path d="M12.7933 26.25C12.6938 26.25 12.5912 26.2325 12.4965 26.1946C12.2059 26.0823 12.0163 25.8154 12.0163 25.5208V21.1458C12.0163 20.9519 12.0986 20.7666 12.2431 20.6296L15.9106 17.1879L10.0691 20.3189C9.81888 20.4531 9.51119 20.4458 9.26565 20.3L4.60361 17.5102C4.35652 17.3629 4.21976 17.0975 4.24774 16.8248C4.27726 16.5521 4.46685 16.3173 4.73725 16.2166L24.9395 8.79811C25.2052 8.70477 25.4989 8.74707 25.7165 8.91477C25.9356 9.08248 26.0381 9.3479 25.9884 9.60894L22.8804 25.6506C22.8369 25.8766 22.6815 26.0706 22.4624 26.1727C22.2432 26.2748 21.9853 26.2748 21.7677 26.1727L16.052 23.4908L13.3403 26.0356C13.1942 26.1756 12.9953 26.25 12.7933 26.25ZM15.9013 21.875C16.0194 21.875 16.1375 21.8998 16.2494 21.9523L21.5377 24.4344L24.2122 10.6341L6.7295 17.0537L9.70855 18.8358L20.178 13.2212C20.5167 13.0419 20.9456 13.1221 21.1818 13.4108C21.4181 13.701 21.3885 14.1108 21.1135 14.3689L13.5703 21.4477V23.7606L15.3512 22.0894C15.5004 21.9479 15.6993 21.875 15.9013 21.875Z" fill="white"/>
</svg>
