<svg width="24" height="24" viewBox="0 0 24 24" fill="none" xmlns="http://www.w3.org/2000/svg">
<rect width="24" height="24" fill="#1E1E1E"/>
<path d="M21.5049 17.2838C22.4066 15.6686 22.8799 13.8497 22.8799 12C22.8799 10.1503 22.4066 8.33139 21.5049 6.71625C21.5002 6.66373 21.4841 6.61286 21.4578 6.56714C21.4315 6.52143 21.3956 6.48198 21.3526 6.4515C20.1365 4.40204 18.2808 2.80865 16.0707 1.9163C13.8607 1.02394 11.4186 0.882034 9.12003 1.51239C6.82144 2.14274 4.79357 3.51046 3.34819 5.40526C1.90281 7.30006 1.11993 9.61705 1.11993 12C1.11993 14.383 1.90281 16.6999 3.34819 18.5947C4.79357 20.4895 6.82144 21.8573 9.12003 22.4876C11.4186 23.118 13.8607 22.9761 16.0707 22.0837C18.2808 21.1914 20.1365 19.598 21.3526 17.5485C21.3956 17.518 21.4315 17.4786 21.4578 17.4329C21.4841 17.3871 21.5002 17.3363 21.5049 17.2838ZM5.76855 17.625H7.48607C7.84568 19.0401 8.50308 20.3623 9.41438 21.5033C7.81156 20.6387 6.53232 19.2779 5.76855 17.625ZM1.88454 12.375H3.75772C3.79193 13.9135 4.08667 15.435 4.62942 16.875H3.12908C2.36674 15.4934 1.9404 13.9519 1.88454 12.375ZM3.12983 7.125H4.63017C4.08742 8.565 3.79268 10.0865 3.75847 11.625H1.88454C1.94063 10.0481 2.36723 8.5065 3.12983 7.125ZM18.2364 6.375H16.5189C16.1593 4.95987 15.5019 3.6377 14.5906 2.49675C16.1934 3.36128 17.4726 4.72207 18.2364 6.375ZM22.1204 11.625H20.2472C20.213 10.0865 19.9183 8.565 19.3755 7.125H20.8759C21.6382 8.50657 22.0645 10.0481 22.1204 11.625ZM19.497 11.625H17.2492C17.2329 10.1101 17.0535 8.60143 16.7139 7.125H18.5747C19.1501 8.55742 19.4625 10.0818 19.497 11.625ZM11.6274 7.125V11.625H7.50595C7.52603 10.1082 7.71805 8.59856 8.07833 7.125H11.6274ZM8.28537 6.375C9.03554 3.90525 10.2553 2.18363 11.6274 1.91475V6.375H8.28537ZM11.6274 12.375V16.875H8.07833C7.71805 15.4014 7.52603 13.8918 7.50595 12.375H11.6274ZM11.6274 17.625V22.0853C10.2553 21.8164 9.03592 20.0948 8.28537 17.625H11.6274ZM12.3776 16.875V12.375H16.499C16.4789 13.8918 16.2869 15.4014 15.9266 16.875H12.3776ZM15.7196 17.625C14.9694 20.0948 13.7492 21.8164 12.3776 22.0853V17.625H15.7196ZM12.3776 11.625V7.125H15.9266C16.2869 8.59856 16.4789 10.1082 16.499 11.625H12.3776ZM12.3776 6.375V1.91475C13.7492 2.18363 14.9686 3.90525 15.7196 6.375H12.3776ZM9.41438 2.49675C8.50308 3.6377 7.84568 4.95987 7.48607 6.375H5.76855C6.53232 4.72207 7.81156 3.36128 9.41438 2.49675ZM7.29065 7.125C6.9512 8.60144 6.77187 10.1101 6.75578 11.625H4.50789C4.54228 10.0818 4.8546 8.55744 5.42985 7.125H7.29065ZM4.50789 12.375H6.75578C6.77187 13.8899 6.9512 15.3986 7.29065 16.875H5.42985C4.8546 15.4426 4.54228 13.9182 4.50789 12.375ZM14.5906 21.5033C15.5019 20.3623 16.1593 19.0401 16.5189 17.625H18.2364C17.4726 19.2779 16.1934 20.6387 14.5906 21.5033ZM16.7139 16.875C17.0535 15.3986 17.2329 13.8899 17.2492 12.375H19.497C19.4625 13.9182 19.1501 15.4426 18.5747 16.875H16.7139ZM20.2472 12.375H22.1204C22.0643 13.9519 21.6377 15.4935 20.8751 16.875H19.3748C19.9178 15.4351 20.2128 13.9135 20.2472 12.375ZM20.4183 6.375H19.0623C18.4887 5.09406 17.659 3.94399 16.6243 2.9955C18.1539 3.78389 19.4591 4.94648 20.4183 6.375ZM7.38029 2.9955C6.34582 3.94411 5.51627 5.09416 4.94261 6.375H3.58668C4.54571 4.9465 5.85077 3.7839 7.38029 2.9955ZM3.58668 17.625H4.94261C5.51638 18.9059 6.34606 20.0559 7.38067 21.0045C5.85101 20.2162 4.54582 19.0536 3.58668 17.625ZM16.6243 21.0045C17.659 20.056 18.4887 18.9059 19.0623 17.625H20.4183C19.4591 19.0535 18.1539 20.2161 16.6243 21.0045Z" fill="white"/>
</svg>
